<svg width="30" height="30" viewBox="0 0 30 30" fill="none" xmlns="http://www.w3.org/2000/svg">
<path fill-rule="evenodd" clip-rule="evenodd" d="M10.366 15.8839C10.1316 15.6495 10 15.3316 10 15.0002C10 14.6687 10.1316 14.3508 10.366 14.1164L17.4372 7.04518C17.5525 6.9258 17.6905 6.83057 17.843 6.76506C17.9955 6.69955 18.1595 6.66506 18.3255 6.66362C18.4915 6.66218 18.6561 6.69381 18.8097 6.75666C18.9633 6.81951 19.1029 6.91233 19.2202 7.02969C19.3376 7.14706 19.4304 7.28662 19.4933 7.44024C19.5561 7.59386 19.5877 7.75846 19.5863 7.92444C19.5849 8.09041 19.5504 8.25443 19.4849 8.40694C19.4193 8.55944 19.3241 8.69738 19.2047 8.81268L13.0172 15.0002L19.2047 21.1877C19.4324 21.4234 19.5584 21.7392 19.5556 22.0669C19.5527 22.3947 19.4213 22.7082 19.1895 22.94C18.9577 23.1717 18.6442 23.3032 18.3165 23.306C17.9887 23.3089 17.673 23.1829 17.4372 22.9552L10.366 15.8839Z" fill="black"/>
</svg>
