<svg width="25" height="26" viewBox="0 0 25 26" fill="none" xmlns="http://www.w3.org/2000/svg">
<path d="M21.1582 13.701L21.6967 11.608C22.3259 9.16509 22.6415 7.94417 22.405 6.88684C22.2176 6.05212 21.7964 5.29396 21.1946 4.70826C20.4332 3.96617 19.2582 3.63901 16.9092 2.98467C14.5602 2.32926 13.3852 2.00209 12.3696 2.24801C11.567 2.44291 10.838 2.88099 10.2748 3.50684C9.66337 4.18501 9.34462 5.17842 8.87066 6.98326L8.61649 7.96367L8.07795 10.0567C7.44774 12.4996 7.13316 13.7205 7.36962 14.7778C7.55703 15.6126 7.97826 16.3707 8.58003 16.9564C9.34149 17.6985 10.5165 18.0257 12.8655 18.6811C14.9821 19.2704 16.1457 19.5943 17.0988 19.4719C17.203 19.4582 17.305 19.4394 17.405 19.4156C18.2074 19.2213 18.9364 18.784 19.4998 18.1589C20.2134 17.3659 20.528 16.1439 21.1582 13.701Z" stroke="#1A6F6F" stroke-width="2"/>
<path d="M17.0991 19.4719C16.8814 20.1656 16.4987 20.7909 15.9866 21.2898C15.2252 22.0318 14.0502 22.359 11.7012 23.0133C9.35223 23.6677 8.17724 23.9959 7.16161 23.7489C6.35912 23.5543 5.63014 23.1166 5.06682 22.4912C4.35328 21.6993 4.03765 20.4773 3.40848 18.0343L2.86994 15.9413C2.23973 13.4984 1.92515 12.2764 2.16161 11.2202C2.34902 10.3855 2.77025 9.6273 3.37203 9.04159C4.13348 8.29951 5.30848 7.97234 7.65744 7.31693C8.1005 7.19271 8.50501 7.08112 8.87098 6.98218" stroke="#1A6F6F" stroke-width="2"/>
<path d="M12.2674 10.8335L17.2986 12.2353M11.458 13.973L14.4768 14.8137" stroke="#1A6F6F" stroke-width="2" stroke-linecap="round"/>
</svg>
