<svg width="26" height="27" viewBox="0 0 26 27" fill="none" xmlns="http://www.w3.org/2000/svg">
<path d="M12.6491 7.07524C12.9478 7.07524 13.2437 7.13635 13.5197 7.25508C13.7957 7.37381 14.0465 7.54783 14.2578 7.7672C14.469 7.98658 14.6366 8.24702 14.7509 8.53365C14.8652 8.82029 14.9241 9.1275 14.9241 9.43774C14.9241 9.74799 14.8652 10.0552 14.7509 10.3418C14.6366 10.6285 14.469 10.8889 14.2578 11.1083C14.0465 11.3277 13.7957 11.5017 13.5197 11.6204C13.2437 11.7391 12.9478 11.8002 12.6491 11.8002C12.0457 11.8002 11.4671 11.5513 11.0404 11.1083C10.6138 10.6652 10.3741 10.0643 10.3741 9.43774C10.3741 8.81117 10.6138 8.21026 11.0404 7.7672C11.4671 7.32415 12.0457 7.07524 12.6491 7.07524ZM12.6491 17.2002C15.8666 17.2002 19.2574 18.8427 19.2574 19.5627V20.8002H6.04076V19.5627C6.04076 18.8427 9.43159 17.2002 12.6491 17.2002ZM12.6491 4.93774C10.2549 4.93774 8.31575 6.95149 8.31575 9.43774C8.31575 11.924 10.2549 13.9377 12.6491 13.9377C15.0433 13.9377 16.9824 11.924 16.9824 9.43774C16.9824 6.95149 15.0433 4.93774 12.6491 4.93774ZM12.6491 15.0627C9.75659 15.0627 3.98242 16.5702 3.98242 19.5627V22.9377H21.3158V19.5627C21.3158 16.5702 15.5416 15.0627 12.6491 15.0627Z" fill="#1A6F6F"/>
</svg>
