<svg width="22" height="19" viewBox="0 0 22 19" fill="none" xmlns="http://www.w3.org/2000/svg">
<path d="M21.5397 4.72972L16.5238 0.397545C16.3779 0.271509 16.2046 0.17153 16.014 0.103319C15.8233 0.0351081 15.619 0 15.4126 0C15.2062 0 15.0019 0.0351081 14.8112 0.103319C14.6206 0.17153 14.4474 0.271509 14.3014 0.397545L0.460181 12.351C0.313973 12.4768 0.19804 12.6264 0.119062 12.7911C0.0400832 12.9558 -0.000380345 13.1324 2.69421e-06 13.3107V17.6429C2.69421e-06 18.0028 0.165554 18.348 0.460238 18.6025C0.754921 18.857 1.1546 19 1.57134 19H20.4274C20.606 19 20.7773 18.9387 20.9036 18.8296C21.0299 18.7206 21.1009 18.5726 21.1009 18.4184C21.1009 18.2641 21.0299 18.1162 20.9036 18.0071C20.7773 17.898 20.606 17.8367 20.4274 17.8367H8.58513L21.5397 6.64909C21.6856 6.52307 21.8014 6.37345 21.8804 6.20879C21.9594 6.04413 22 5.86764 22 5.68941C22 5.51117 21.9594 5.33468 21.8804 5.17002C21.8014 5.00536 21.6856 4.85574 21.5397 4.72972ZM4.76902 15.7041L14.591 7.22006L16.7819 9.1123L6.95879 17.5954L4.76902 15.7041ZM3.81611 14.8821L1.62634 12.9898L11.4483 4.50676L13.6392 6.39802L3.81611 14.8821ZM1.34687 17.6429V14.3935L5.33358 17.8367H1.57134C1.51181 17.8367 1.45471 17.8163 1.41261 17.78C1.37052 17.7436 1.34687 17.6943 1.34687 17.6429ZM20.5868 5.82609L17.7337 8.29026L12.4012 3.68375L15.2532 1.22055C15.2741 1.20252 15.2988 1.18822 15.3261 1.17847C15.3533 1.16871 15.3825 1.16369 15.412 1.16369C15.4415 1.16369 15.4708 1.16871 15.498 1.17847C15.5253 1.18822 15.55 1.20252 15.5709 1.22055L20.5868 5.55175C20.6077 5.56976 20.6242 5.59114 20.6355 5.61468C20.6468 5.63821 20.6526 5.66344 20.6526 5.68892C20.6526 5.7144 20.6468 5.73963 20.6355 5.76316C20.6242 5.7867 20.6077 5.80808 20.5868 5.82609Z" fill="white"/>
</svg>
